<svg width="1922" height="1082" viewBox="0 0 1922 1082" fill="none" xmlns="http://www.w3.org/2000/svg">
<path d="M961.374 1081L961.374 1" stroke="#9C9C9C" stroke-opacity="0.8"/>
<path d="M769.374 1081L769.374 1" stroke="#9C9C9C" stroke-opacity="0.8"/>
<path d="M1153.37 1081L1154.37 1" stroke="#9C9C9C" stroke-opacity="0.8"/>
<path d="M1.37408 541L1921.37 541" stroke="#9C9C9C" stroke-opacity="0.8"/>
<path d="M1.37408 361L1921.37 361" stroke="#9C9C9C" stroke-opacity="0.8"/>
<path d="M1.37408 271L1921.37 271" stroke="#9C9C9C" stroke-opacity="0.8"/>
<path d="M1.37408 68.5L1921.37 68.5" stroke="#9C9C9C" stroke-opacity="0.8"/>
<path d="M1.37402 1013.5H1921.37" stroke="#9C9C9C" stroke-opacity="0.8"/>
<path d="M1.37408 811L1921.37 811" stroke="#9C9C9C" stroke-opacity="0.8"/>
<path d="M1.37408 721L1921.37 721" stroke="#9C9C9C" stroke-opacity="0.8"/>
<path d="M481.374 1081L481.374 1" stroke="#9C9C9C" stroke-opacity="0.8"/>
<path d="M1441.37 1081L1442.37 1" stroke="#9C9C9C" stroke-opacity="0.8"/>
<path d="M1537.37 1081L1538.37 1" stroke="#9C9C9C" stroke-opacity="0.8"/>
<path d="M1601.37 1081L1602.37 1" stroke="#9C9C9C" stroke-opacity="0.8"/>
<path d="M1681.37 1081L1682.37 1" stroke="#9C9C9C" stroke-opacity="0.8"/>
<path d="M1801.37 1081L1802.37 1" stroke="#9C9C9C" stroke-opacity="0.8"/>
<path d="M1861.37 1081L1862.37 1" stroke="#9C9C9C" stroke-opacity="0.8"/>
<path d="M61.3742 1081L61.3743 1" stroke="#9C9C9C" stroke-opacity="0.8"/>
<path d="M241.374 1081L241.374 1" stroke="#9C9C9C" stroke-opacity="0.8"/>
<path d="M121.374 1081L121.374 1" stroke="#9C9C9C" stroke-opacity="0.8"/>
<path d="M321.374 1081L321.374 1" stroke="#9C9C9C" stroke-opacity="0.8"/>
<path d="M385.374 1081L385.374 1" stroke="#9C9C9C" stroke-opacity="0.8"/>
<path d="M1.37423 1081L961.374 1" stroke="#9C9C9C" stroke-opacity="0.8"/>
<path d="M1.37427 1081L481.374 1" stroke="#9C9C9C" stroke-opacity="0.8"/>
<path d="M1921.37 1081L961.374 1" stroke="#9C9C9C" stroke-opacity="0.8"/>
<path d="M1921.37 1081L1441.37 1" stroke="#9C9C9C" stroke-opacity="0.8"/>
<path d="M961.374 1081L1921.37 1" stroke="#9C9C9C" stroke-opacity="0.8"/>
<path d="M1.37406 1081L1921.37 1" stroke="#9C9C9C" stroke-opacity="0.8"/>
<path d="M1.37398 541L1921.37 1" stroke="#9C9C9C" stroke-opacity="0.8"/>
<path d="M1.37398 541L1921.37 1081" stroke="#9C9C9C" stroke-opacity="0.8"/>
<path d="M1441.37 1081L1921.37 1" stroke="#9C9C9C" stroke-opacity="0.8"/>
<path d="M961.374 1081L1.37427 1" stroke="#9C9C9C" stroke-opacity="0.8"/>
<path d="M1921.61 1080.57L1.37427 1" stroke="#9C9C9C" stroke-opacity="0.8"/>
<path d="M1921.37 541L1.37427 1" stroke="#9C9C9C" stroke-opacity="0.8"/>
<path d="M1921.37 541L1.37427 1081" stroke="#9C9C9C" stroke-opacity="0.8"/>
<path d="M481.374 1081L1.37427 1" stroke="#9C9C9C" stroke-opacity="0.8"/>
</svg>
